<?xml version="1.0" standalone="no"?>
<!DOCTYPE svg PUBLIC "-//W3C//DTD SVG 20010904//EN"
 "http://www.w3.org/TR/2001/REC-SVG-20010904/DTD/svg10.dtd">
<svg version="1.0" xmlns="http://www.w3.org/2000/svg"
 width="4267.000000pt" height="4267.000000pt" viewBox="0 0 4267.000000 4267.000000"
 preserveAspectRatio="xMidYMid meet">
<metadata>
Created by potrace 1.11, written by Peter Selinger 2001-2013
</metadata>
<g transform="translate(0.000000,4267.000000) scale(0.100000,-0.100000)"
fill="#000000" stroke="none">
<path d="M24408 34155 c-2 -2 -24 -5 -49 -8 -356 -42 -751 -368 -1130 -929
-54 -82 -99 -150 -99 -152 0 -3 -13 -25 -30 -49 -16 -24 -89 -147 -161 -273
-72 -125 -141 -242 -154 -259 -12 -16 -73 -129 -135 -250 -62 -121 -150 -292
-195 -380 -85 -166 -310 -605 -328 -640 -6 -11 -14 -27 -18 -35 -4 -8 -56
-109 -115 -225 -59 -115 -128 -250 -154 -300 -26 -49 -118 -229 -206 -400 -87
-170 -188 -368 -225 -440 -37 -71 -113 -220 -169 -330 -57 -110 -146 -285
-200 -390 -54 -104 -144 -280 -200 -390 -56 -110 -140 -272 -185 -360 -45 -88
-135 -263 -200 -390 -65 -126 -157 -306 -205 -400 -48 -93 -138 -269 -200
-390 -62 -121 -150 -292 -195 -380 -122 -236 -257 -500 -390 -760 -65 -126
-155 -302 -200 -390 -45 -88 -127 -247 -181 -353 -55 -106 -137 -268 -185
-360 -88 -173 -273 -533 -434 -847 -119 -232 -270 -527 -402 -785 -58 -113
-147 -286 -198 -385 -51 -99 -142 -277 -203 -395 -60 -118 -154 -300 -207
-405 -54 -104 -143 -278 -198 -385 -55 -107 -135 -263 -178 -347 -43 -83 -133
-259 -200 -390 -67 -131 -159 -310 -204 -398 -45 -88 -135 -263 -200 -390
-206 -403 -297 -580 -308 -592 -5 -7 -6 -13 -2 -13 4 0 3 -6 -3 -12 -12 -16
-134 -251 -490 -948 -119 -234 -246 -481 -387 -755 -93 -181 -232 -452 -390
-760 -236 -461 -321 -627 -405 -790 -48 -93 -138 -269 -200 -390 -62 -121
-117 -226 -122 -232 -6 -7 -7 -13 -3 -13 4 0 3 -6 -3 -12 -6 -7 -45 -80 -87
-163 -43 -82 -121 -235 -175 -340 -54 -104 -144 -280 -200 -390 -56 -110 -146
-285 -200 -390 -54 -104 -148 -289 -210 -410 -144 -282 -265 -517 -278 -541
-6 -11 -13 -26 -16 -34 -3 -8 -47 -94 -97 -190 -97 -187 -243 -470 -409 -795
-56 -110 -142 -276 -190 -370 -48 -93 -138 -269 -200 -390 -213 -417 -274
-534 -277 -531 -2 2 23 63 56 137 33 74 134 307 226 519 92 212 178 409 191
438 13 29 35 79 49 112 14 33 36 83 49 112 13 29 37 85 54 123 49 116 198 457
220 505 11 25 56 128 100 230 44 102 89 205 100 230 11 25 73 167 137 315 64
149 125 288 135 310 9 22 26 60 37 85 12 25 40 90 63 145 23 55 53 123 65 150
13 28 37 84 55 125 18 41 43 99 56 128 13 29 36 80 50 115 14 34 34 80 44 102
43 94 100 225 100 230 0 2 13 32 29 67 16 35 59 133 96 218 72 168 78 182 124
283 17 37 31 70 31 73 0 3 14 36 31 72 17 37 49 110 71 162 41 98 62 145 105
240 14 30 29 64 33 75 8 20 237 546 270 620 10 22 41 94 70 160 28 66 61 140
72 165 11 25 25 59 33 75 7 17 47 109 89 207 42 97 83 189 91 205 8 15 15 31
15 35 0 4 13 37 30 72 16 36 41 94 56 128 14 35 34 81 44 103 23 52 364 833
532 1220 72 165 139 318 149 340 10 22 117 270 239 550 122 281 232 534 246
563 13 29 24 54 24 57 0 2 13 32 29 67 16 35 41 91 55 125 14 35 37 87 50 115
14 29 46 103 72 163 25 61 55 129 65 152 41 92 41 90 10 146 -15 29 -81 156
-146 282 -65 127 -135 262 -155 300 -20 39 -77 147 -125 240 -48 94 -124 240
-168 325 -44 85 -108 209 -142 275 -113 217 -201 388 -285 550 -89 173 -184
355 -290 560 -37 72 -111 216 -165 320 -54 105 -121 235 -150 290 -29 55 -120
233 -202 395 -180 354 -244 462 -371 622 -337 423 -683 471 -1018 141 -38 -37
-87 -90 -109 -118 -22 -27 -43 -52 -46 -55 -12 -11 -158 -239 -201 -315 -39
-70 -171 -331 -174 -345 0 -3 -11 -27 -24 -55 -12 -27 -40 -88 -62 -135 -21
-46 -42 -87 -46 -90 -4 -3 -39 -66 -76 -140 -69 -136 -185 -362 -346 -675 -48
-93 -134 -260 -190 -370 -56 -110 -146 -285 -200 -390 -54 -104 -145 -282
-203 -395 -57 -113 -148 -290 -202 -395 -54 -104 -147 -287 -208 -405 -60
-118 -146 -287 -192 -375 -45 -88 -133 -259 -195 -380 -62 -121 -152 -296
-200 -390 -48 -93 -135 -262 -192 -375 -58 -113 -152 -295 -208 -405 -57 -110
-146 -283 -198 -385 -52 -102 -138 -270 -192 -375 -54 -104 -146 -284 -205
-400 -59 -115 -149 -291 -200 -390 -51 -99 -143 -279 -205 -400 -108 -211
-194 -379 -395 -770 -51 -99 -145 -283 -210 -410 -162 -316 -293 -572 -385
-750 -43 -82 -133 -258 -200 -390 -138 -271 -299 -585 -403 -785 -38 -74 -119
-232 -179 -350 -103 -200 -167 -326 -403 -785 -84 -164 -185 -360 -439 -857
-50 -97 -140 -272 -200 -390 -60 -117 -141 -276 -181 -353 -40 -77 -121 -234
-180 -350 -59 -115 -147 -286 -195 -380 -48 -93 -145 -282 -215 -420 -70 -137
-165 -322 -211 -411 -45 -88 -128 -250 -184 -360 -57 -109 -137 -266 -180
-349 -42 -82 -133 -260 -201 -395 -68 -135 -127 -247 -130 -250 -9 -7 -46
-126 -57 -183 -13 -62 -8 -208 9 -272 28 -113 112 -257 191 -331 93 -88 242
-160 368 -179 54 -8 32362 -9 32405 -1 59 11 72 14 121 29 75 22 164 70 231
124 214 172 320 437 277 693 -25 150 -11 115 -224 525 -40 77 -85 163 -100
190 -15 28 -60 113 -101 190 -40 77 -97 185 -125 240 -29 55 -74 141 -100 190
-25 50 -65 126 -89 170 -23 44 -71 134 -105 200 -35 66 -80 152 -100 190 -21
39 -70 133 -110 210 -40 77 -89 172 -110 210 -21 39 -70 133 -110 210 -40 77
-85 163 -100 190 -15 28 -58 109 -95 180 -37 72 -89 171 -115 220 -54 102
-138 263 -215 410 -29 55 -71 134 -92 175 -22 41 -70 134 -108 205 -131 251
-168 321 -205 390 -20 39 -72 138 -115 220 -43 83 -94 182 -115 220 -20 39
-68 129 -105 200 -37 72 -85 162 -105 200 -57 107 -130 246 -205 390 -37 72
-86 166 -110 210 -62 117 -272 517 -420 800 -32 61 -74 142 -95 180 -21 39
-70 133 -110 210 -40 77 -90 172 -110 210 -38 71 -86 163 -200 380 -60 116
-128 244 -215 410 -23 44 -73 139 -110 210 -37 72 -82 157 -100 190 -18 33
-60 114 -95 180 -90 172 -219 419 -315 600 -24 44 -77 148 -120 230 -43 83
-90 173 -105 200 -15 28 -60 113 -100 190 -40 77 -89 172 -110 210 -21 39 -68
129 -105 200 -73 141 -242 461 -310 590 -23 44 -73 139 -110 210 -75 143 -147
280 -207 395 -22 41 -67 127 -100 190 -117 223 -181 346 -224 427 -24 46 -69
131 -100 190 -31 60 -78 149 -104 198 -76 144 -133 251 -200 380 -34 66 -84
161 -111 212 -27 51 -78 150 -115 220 -36 70 -83 160 -104 198 -20 39 -68 129
-105 200 -37 72 -84 162 -105 200 -20 39 -65 124 -100 190 -34 66 -82 156
-105 200 -23 44 -70 134 -105 200 -34 66 -85 162 -111 213 -27 50 -71 134 -98
185 -26 50 -77 146 -111 212 -35 66 -82 156 -105 200 -23 44 -71 134 -105 200
-60 115 -115 218 -205 390 -70 133 -165 315 -214 410 -25 50 -48 92 -51 95 -3
3 -17 30 -32 60 -15 30 -57 111 -93 180 -36 69 -98 186 -137 260 -39 74 -94
178 -121 230 -28 52 -71 136 -97 185 -26 50 -67 128 -92 175 -25 47 -76 144
-113 215 -37 72 -84 162 -105 200 -21 39 -68 129 -105 200 -37 72 -87 166
-110 210 -23 44 -75 143 -115 220 -40 77 -85 163 -100 190 -27 49 -77 145
-220 420 -40 77 -85 163 -100 190 -15 28 -56 104 -90 170 -71 136 -138 263
-209 398 -27 50 -77 146 -111 212 -34 66 -82 156 -105 200 -23 44 -69 132
-102 195 -80 151 -153 292 -218 415 -29 55 -81 154 -115 220 -34 66 -75 143
-90 170 -15 28 -62 118 -105 200 -43 83 -95 182 -115 220 -21 39 -65 124 -100
190 -64 123 -127 242 -210 400 -26 50 -72 137 -103 195 -30 58 -74 143 -99
190 -50 94 -133 253 -228 435 -62 120 -117 222 -193 365 -22 41 -48 81 -56 88
-9 8 -10 11 -3 7 10 -5 10 -1 1 19 -7 14 -15 24 -18 21 -4 -2 -30 42 -59 98
-186 361 -367 623 -582 838 -237 238 -465 354 -710 363 -49 2 -91 2 -92 1z
m-41 -11005 c17 -30 54 -100 83 -155 29 -55 67 -127 85 -160 18 -33 50 -94 72
-135 l39 -75 -1 -1795 -1 -1795 -95 -190 c-53 -104 -122 -245 -155 -313 l-60
-123 -119 218 c-65 120 -138 252 -162 294 l-43 76 5 644 c2 354 7 1029 10
1499 4 470 7 999 9 1175 l2 320 106 205 c58 113 124 243 147 289 23 45 44 81
45 80 2 -2 17 -29 33 -59z m-1222 -4972 c313 -156 430 -212 438 -210 17 5 5
-8 -20 -21 -54 -27 -188 -100 -218 -117 -16 -10 -55 -31 -85 -47 -72 -39 -164
-90 -219 -120 -51 -28 33 -27 -1211 -17 -948 7 -1782 13 -2140 14 l-325 2
-287 146 c-158 81 -288 149 -288 152 0 5 226 128 400 219 36 18 91 47 124 65
l58 31 1792 -1 1791 -2 190 -94z m3605 87 c1201 -8 1913 -13 2250 -15 l285 -2
210 -106 c116 -58 247 -124 292 -146 45 -23 82 -43 83 -46 0 -3 -33 -22 -72
-43 -40 -20 -109 -56 -153 -80 -44 -24 -142 -76 -218 -116 l-139 -73 -1791 0
-1792 1 -312 153 c-172 84 -313 155 -313 158 0 5 46 31 235 133 38 21 97 53
130 72 133 73 201 108 222 114 12 3 64 5 115 4 51 -1 487 -4 968 -8z m-2390
-866 c0 -3 22 -46 48 -95 27 -49 77 -143 112 -209 34 -66 77 -147 95 -180 l31
-60 -1 -1795 -2 -1795 -155 -313 -155 -313 -36 68 c-20 37 -53 97 -73 133 -20
36 -52 94 -71 130 -56 102 -94 171 -119 218 l-24 42 5 638 c4 546 12 1686 19
2712 1 157 4 290 8 295 6 11 239 465 270 528 18 36 20 38 33 20 8 -10 15 -21
15 -24z"/>
</g>
</svg>
